<svg width="300" height="300" xmlns="http://www.w3.org/2000/svg">

 <g>
  <title>Layer 1</title>
  <path transform="rotate(-20.0696 121.936 123.865)" stroke="null" id="svg_8" d="m109.57267,118.23356c0.74982,0.49625 2.33665,-0.44363 3.10757,-0.55976c-0.86769,-1.12799 2.40058,-6.62336 1.27258,-8.61904c-0.34707,-4.51197 -9.13229,-14.6968 -10.23869,-15.87866c0.42204,-0.79258 5.15183,-0.05505 5.01064,0.05865c-1.97374,1.58995 6.66043,10.71475 7.65758,15.99355c1.83734,-0.1017 4.25076,-0.79009 5.32183,0.34707c1.0002,-1.09294 8.71768,-9.44369 9.13958,-16.65958c0.06046,-1.03407 4.24909,-0.37963 3.46117,0.25066c-1.26301,4.49267 -10.16956,17.10661 -10.86538,17.56586c0.80979,3.93346 0.48195,4.20307 5.6544,7.26163c2.32783,-5.46608 7.28773,-10.10598 11.83052,-14.72401c5.12955,-5.18516 8.57211,-10.15249 14.22263,-15.55026c7.43843,-6.85673 16.93813,-13.11324 25.63874,-16.84804c6.05263,-2.59813 16.19373,-4.82544 17.74835,-4.97121c2.88002,-0.27961 5.48447,-0.22998 8.89822,0.27724c5.03709,0.74836 9.95542,1.16631 15.24386,3.64872c4.97268,3.18601 3.25369,7.17903 2.32651,10.91925c-7.65875,8.44591 -15.50298,18.56105 -17.97346,28.90936c-0.83062,3.83177 -2.32408,10.43466 -5.84883,14.58226c-5.66662,6.37986 -12.60172,6.14392 -19.1177,7.00876c3.97033,1.13681 8.27655,4.8487 12.13984,8.57871c6.02653,5.86688 8.96306,11.88341 7.40677,18.43347c-0.33131,1.37386 -6.07748,11.79443 -8.88802,15.06415c-10.66754,12.45046 -25.19053,20.89416 -36.89575,19.52377c-4.21522,-0.49347 -15.84222,-9.34387 -17.93265,-11.9554c-5.18939,-6.48293 -9.45188,-14.30259 -9.62708,-21.12968c-0.64507,-0.64452 -1.43397,-0.69214 -1.08614,-1.55441c-0.64639,1.9745 -2.69899,8.40468 -5.73776,12.46976c-4.3932,5.87694 -8.41468,-2.90821 -10.04246,-10.03261c-0.55803,-2.44222 -0.14848,-2.86503 -0.79932,-4.32538c-3.07751,1.1677 -1.45708,4.55348 -2.66483,7.28857c-1.02394,2.38176 -5.60956,9.65658 -6.8759,11.31504c-4.04793,5.30136 -13.13725,13.32357 -19.7291,15.24851c-6.11802,1.78661 -11.30331,1.53595 -16.22032,-0.98596c-6.34209,-3.25279 -15.27995,-10.80728 -20.77859,-16.94987c-6.96092,-7.60052 -13.04493,-19.01997 -7.25441,-27.0637c3.69593,-5.01883 10.6529,-12.49822 17.45119,-14.33612c-4.79893,-0.58773 -15.4165,-3.75055 -19.3651,-12.53549c-1.26737,-2.78528 -1.73752,-7.11587 -2.05988,-10.21434c-0.5245,-5.11546 -2.85851,-10.99268 -4.79602,-16.02963c-1.55753,-4.60499 -4.31038,-10.5004 -7.19138,-15.53853c-3.01927,-5.28699 -5.49461,-14.02924 -0.24018,-18.33414c1.83547,-1.50402 7.51882,-3.2582 8.70658,-3.38328c4.15191,-0.44336 9.80853,1.59557 14.00765,2.8188c2.75105,0.80805 14.82195,5.12073 18.16018,7.49535c22.00723,15.65459 37.65599,35.15448 47.82256,53.11996z" fill="#000000"/>
  <path transform="rotate(45 239.635 199.765)" stroke="null" id="svg_6" d="m233.31717,196.88741c0.38319,0.2536 1.19412,-0.22671 1.58809,-0.28606c-0.44342,-0.57645 1.22679,-3.3848 0.65034,-4.40467c-0.17737,-2.3058 -4.66697,-7.51065 -5.23238,-8.11463c0.21568,-0.40504 2.63279,-0.02813 2.56064,0.02998c-1.00866,0.81253 3.40375,5.47566 3.91333,8.17334c0.93896,-0.05197 2.17231,-0.40376 2.71967,0.17737c0.51114,-0.55853 4.45508,-4.8261 4.67069,-8.51371c0.0309,-0.52845 2.17146,-0.19401 1.76879,0.1281c-0.64545,2.29593 -5.19705,8.74216 -5.55264,8.97686c0.41384,2.01016 0.24629,2.14794 2.88962,3.71098c1.18961,-2.79338 3.72432,-5.16456 6.04587,-7.52456c2.62141,-2.64982 4.38069,-5.18833 7.26833,-7.9468c3.80134,-3.50407 8.65607,-6.70139 13.10242,-8.61002c3.09314,-1.32775 8.27564,-2.466 9.07012,-2.54049c1.47181,-0.14289 2.80278,-0.11752 4.54735,0.14168c2.57416,0.38244 5.08762,0.59603 7.79022,1.86464c2.54124,1.62818 1.66276,3.66877 1.18894,5.58017c-3.91393,4.3162 -7.92264,9.48544 -9.18516,14.77384c-0.42448,1.95819 -1.1877,5.33253 -2.98899,7.45212c-2.89587,3.26036 -6.43998,3.13979 -9.76991,3.58175c2.02899,0.58095 4.22965,2.47788 6.20394,4.38406c3.0798,2.99821 4.58048,6.0729 3.78516,9.42024c-0.16932,0.7021 -3.10584,6.02742 -4.54213,7.69838c-5.45154,6.36269 -12.87337,10.67775 -18.8552,9.97743c-2.15415,-0.25218 -8.09601,-4.77509 -9.1643,-6.10969c-2.65198,-3.31304 -4.83029,-7.3092 -4.91982,-10.79811c-0.32966,-0.32937 -0.73282,-0.35371 -0.55506,-0.79436c-0.33033,1.00905 -1.37929,4.29513 -2.93223,6.37255c-2.2451,3.00335 -4.30024,-1.48621 -5.1321,-5.12706c-0.28517,-1.24807 -0.07588,-1.46415 -0.40848,-2.21044c-1.57273,0.59674 -0.74463,2.32701 -1.36184,3.72475c-0.52327,1.21718 -2.86671,4.9349 -3.51386,5.78244c-2.06865,2.7092 -6.71366,6.80887 -10.08236,7.7926c-3.12655,0.91302 -5.77645,0.78493 -8.28923,-0.50387c-3.24106,-1.6623 -7.80867,-5.52295 -10.61869,-8.66206c-3.55731,-3.88417 -6.66648,-9.71996 -3.70729,-13.83063c1.88877,-2.56483 5.44406,-6.38709 8.91825,-7.32633c-2.45244,-0.30036 -7.87844,-1.91668 -9.89634,-6.40614c-0.64768,-1.42339 -0.88794,-3.63649 -1.05268,-5.21993c-0.26804,-2.61421 -1.46081,-5.6177 -2.45095,-8.19178c-0.79596,-2.35333 -2.20278,-5.36612 -3.67508,-7.94081c-1.54297,-2.70186 -2.80796,-7.1695 -0.12274,-9.36948c0.938,-0.76861 3.84241,-1.66507 4.44941,-1.72899c2.12179,-0.22657 5.01255,0.8154 7.15847,1.44052c1.4059,0.41295 7.57461,2.6169 9.28058,3.83042c11.24657,8.00012 19.24371,17.96535 24.43924,27.14642z" fill="#000000"/>
 </g>
</svg>